<svg id="Capa_1" data-name="Capa 1" xmlns="http://www.w3.org/2000/svg" viewBox="0 0 456 115"><defs><style>.cls-1{fill:#fff;}</style></defs><path class="cls-1" d="M53.61,28.88v-6.2l-2.42,6.2h-.8L48,22.68v6.2H46.14V20.29H48.7l2.09,5.37,2.08-5.37h2.58v8.59Z"/><path class="cls-1" d="M59.6,25.44V20.29h1.85v5.1a2,2,0,1,0,4,0v-5.1h1.87v5.15c0,2.12-1.26,3.59-3.88,3.59S59.6,27.56,59.6,25.44Z"/><path class="cls-1" d="M77.42,28.88l-4.1-5.61v5.61H71.5V20.29h1.88l4,5.39V20.29h1.83v8.59Z"/><path class="cls-1" d="M83.33,28.88V20.29h1.83v8.59Z"/><path class="cls-1" d="M88.88,24.59a4.37,4.37,0,0,1,4.59-4.45,3.9,3.9,0,0,1,3.58,2.1L95.48,23a2.31,2.31,0,0,0-2-1.25,2.67,2.67,0,0,0-2.7,2.82,2.68,2.68,0,0,0,2.7,2.82,2.31,2.31,0,0,0,2-1.25l1.57.76A3.93,3.93,0,0,1,93.47,29,4.37,4.37,0,0,1,88.88,24.59Z"/><path class="cls-1" d="M100.59,28.88V20.29h1.83v8.59Z"/><path class="cls-1" d="M106.56,28.88V20.29h4a2.76,2.76,0,1,1,0,5.52h-2.19v3.07Zm5-5.82a1.16,1.16,0,0,0-1.28-1.16h-1.93v2.3h1.93A1.16,1.16,0,0,0,111.6,23.06Z"/><path class="cls-1" d="M122,28.88l-.54-1.46h-3.69l-.54,1.46H115.2l3.31-8.59h2.29l3.31,8.59Zm-2.38-6.77-1.34,3.7H121Z"/><path class="cls-1" d="M127.28,28.88V20.29h1.84v7h3.63v1.61Z"/><path class="cls-1" d="M136.43,28.88V20.29h1.83v8.59Z"/><path class="cls-1" d="M142.4,28.88V20.29h3.39c2.69,0,4.56,1.71,4.56,4.29a4.2,4.2,0,0,1-4.55,4.3Zm6.08-4.3a2.51,2.51,0,0,0-2.68-2.68h-1.57v5.37h1.56A2.58,2.58,0,0,0,148.48,24.58Z"/><path class="cls-1" d="M159.59,28.88l-.54-1.46h-3.68l-.55,1.46h-2.07l3.31-8.59h2.29l3.31,8.59Zm-2.38-6.77-1.34,3.7h2.68Z"/><path class="cls-1" d="M164.91,28.88V20.29h3.38c2.7,0,4.56,1.71,4.56,4.29a4.19,4.19,0,0,1-4.54,4.3Zm6.08-4.3a2.51,2.51,0,0,0-2.68-2.68h-1.57v5.37h1.55A2.58,2.58,0,0,0,171,24.58Z"/><path class="cls-1" d="M47.65,59.65a17.79,17.79,0,0,1-3,10,16.82,16.82,0,0,1-3.41,3.74,18.46,18.46,0,0,1-3.47,2.23.76.76,0,0,0-.26,1.15L50,92.76a.76.76,0,0,1-.6,1.23H36.65a.75.75,0,0,1-.6-.3L23.76,77.59a.77.77,0,0,0-.61-.3H18.63a.76.76,0,0,0-.76.76V93.43a.76.76,0,0,1-.76.77H6a.77.77,0,0,1-.77-.77V42.86A.77.77,0,0,1,6,42.1H30.68a16.35,16.35,0,0,1,6.62,1.37,16.73,16.73,0,0,1,5.4,3.75,17.82,17.82,0,0,1,4.95,12.43ZM29.1,65.81A5.62,5.62,0,0,0,33.26,64,6,6,0,0,0,35,59.65a5.89,5.89,0,0,0-1.75-4.28,5.62,5.62,0,0,0-4.16-1.79H18.63a.76.76,0,0,0-.76.76V65.05a.76.76,0,0,0,.76.76Z"/><path class="cls-1" d="M95.46,42.29l21.19,50.77A.67.67,0,0,1,116,94h-10.6a.68.68,0,0,1-.62-.41l-4.36-10.35a.66.66,0,0,0-.62-.41H78.61a.67.67,0,0,0-.63.42L73.7,93.58a.68.68,0,0,1-.62.41H62.41a.67.67,0,0,1-.62-.93L83,42.29a.68.68,0,0,1,.62-.41H94.83A.69.69,0,0,1,95.46,42.29Zm.24,29.45-5.82-14a.68.68,0,0,0-1.25,0l-5.82,14a.68.68,0,0,0,.62.94H95.08A.68.68,0,0,0,95.7,71.74Z"/><path class="cls-1" d="M163.63,42.1h9.83a.67.67,0,0,1,.67.67V93.53a.67.67,0,0,1-.67.67h-9.65a.68.68,0,0,1-.54-.27L139.7,61.83a.67.67,0,0,0-1.21.4v31.3a.68.68,0,0,1-.68.67H128a.68.68,0,0,1-.68-.67V42.77a.68.68,0,0,1,.68-.67h9.42a.65.65,0,0,1,.54.27L161.74,74.7a.68.68,0,0,0,1.22-.4V42.77A.67.67,0,0,1,163.63,42.1Z"/><path class="cls-1" d="M208.94,84.28a15.65,15.65,0,0,0,6.78-1.58A21.68,21.68,0,0,0,222,77.85a.66.66,0,0,1,.93,0L229,83.65a.67.67,0,0,1,.06.9,29.25,29.25,0,0,1-9.31,7.8,24.22,24.22,0,0,1-11.21,2.81A22.73,22.73,0,0,1,198.86,93,25.33,25.33,0,0,1,191,87.31a26.49,26.49,0,0,1-5.26-8.4,27.11,27.11,0,0,1-1.91-10.19,26.18,26.18,0,0,1,2-10.16,27.61,27.61,0,0,1,5.37-8.36,25.14,25.14,0,0,1,8-5.69,23.49,23.49,0,0,1,9.79-2.09,23.86,23.86,0,0,1,9.19,1.8,26.21,26.21,0,0,1,8.1,5.55.66.66,0,0,1,.05.9l-5.51,6.71a.66.66,0,0,1-1,.07,15.13,15.13,0,0,0-10.88-4.29,13,13,0,0,0-5.58,1.22,14.52,14.52,0,0,0-4.57,3.32,15.51,15.51,0,0,0-3.07,4.93,16.63,16.63,0,0,0-1.11,6.09,16.31,16.31,0,0,0,1.11,6,16.13,16.13,0,0,0,3.07,4.94,14.3,14.3,0,0,0,4.57,3.35A13.13,13.13,0,0,0,208.94,84.28Z"/><path class="cls-1" d="M267.06,43.55l20.78,49.76a.66.66,0,0,1-.61.91H276.84a.66.66,0,0,1-.61-.4L272,83.68a.64.64,0,0,0-.6-.4H250.55a.64.64,0,0,0-.61.4l-4.2,10.14a.66.66,0,0,1-.61.4H234.67a.66.66,0,0,1-.61-.91l20.77-49.76a.67.67,0,0,1,.61-.41h11A.65.65,0,0,1,267.06,43.55Zm.24,28.87-5.71-13.69a.65.65,0,0,0-1.21,0l-5.72,13.69a.66.66,0,0,0,.61.91h11.42A.65.65,0,0,0,267.3,72.42Z"/><path class="cls-1" d="M319.6,65.33h18a.66.66,0,0,1,.66.66V83.83a.71.71,0,0,1-.14.42,30.68,30.68,0,0,1-9.44,8.1,23.33,23.33,0,0,1-20.82.69,25.57,25.57,0,0,1-8-5.73,27.32,27.32,0,0,1-5.37-8.4,27.13,27.13,0,0,1,0-20.35,27.61,27.61,0,0,1,5.37-8.36,25.14,25.14,0,0,1,8-5.69,23.49,23.49,0,0,1,9.79-2.09,24,24,0,0,1,9.26,1.8,25.54,25.54,0,0,1,8,5.55.67.67,0,0,1,.05.9l-5.52,6.71a.66.66,0,0,1-1,.07,16.75,16.75,0,0,0-5.18-3.32,16.28,16.28,0,0,0-5.62-1,13.18,13.18,0,0,0-5.66,1.22,14.52,14.52,0,0,0-4.57,3.32,15.51,15.51,0,0,0-3.07,4.93,16.63,16.63,0,0,0-1.11,6.09,16.31,16.31,0,0,0,1.11,6,16.13,16.13,0,0,0,3.07,4.94,14.3,14.3,0,0,0,4.57,3.35,13.32,13.32,0,0,0,5.66,1.22,15.11,15.11,0,0,0,5.29-1,17.63,17.63,0,0,0,5.05-3,.63.63,0,0,0,.25-.51V75.22a.66.66,0,0,0-.66-.66h-8a.67.67,0,0,1-.66-.66V66A.67.67,0,0,1,319.6,65.33Z"/><path class="cls-1" d="M379.61,43.14h9.63a.66.66,0,0,1,.66.66v32a17.68,17.68,0,0,1-1.59,7.35,19.92,19.92,0,0,1-4.33,6.2,21.38,21.38,0,0,1-6.38,4.25,20.12,20.12,0,0,1-15.63,0,20.93,20.93,0,0,1-6.39-4.25,20.49,20.49,0,0,1-4.29-6.2,17.68,17.68,0,0,1-1.59-7.35v-32a.67.67,0,0,1,.66-.66H360a.67.67,0,0,1,.66.66V73.62a11.43,11.43,0,0,0,.72,4.07,11.79,11.79,0,0,0,1.94,3.39,9.24,9.24,0,0,0,2.9,2.34,7.79,7.79,0,0,0,3.56.86,7.66,7.66,0,0,0,3.58-.86,9.88,9.88,0,0,0,2.91-2.34A11.52,11.52,0,0,0,379,73.62V43.8A.67.67,0,0,1,379.61,43.14Z"/><path class="cls-1" d="M430.34,43.55l20.78,49.76a.66.66,0,0,1-.61.91H440.12a.64.64,0,0,1-.61-.4l-4.27-10.14a.64.64,0,0,0-.61-.4H413.82a.66.66,0,0,0-.61.4L409,93.82a.64.64,0,0,1-.61.4H398a.66.66,0,0,1-.61-.91l20.77-49.76a.67.67,0,0,1,.61-.41h11A.65.65,0,0,1,430.34,43.55Zm.24,28.87-5.71-13.69a.65.65,0,0,0-1.21,0l-5.72,13.69a.66.66,0,0,0,.61.91H430A.66.66,0,0,0,430.58,72.42Z"/><rect class="cls-1" x="4.83" y="19.84" width="28.92" height="11" rx="2.65"/></svg>